<svg width="127" height="160" viewBox="0 0 127 160" fill="none" xmlns="http://www.w3.org/2000/svg">
<rect x="0.5" y="0.5" width="126" height="159" rx="7.5" fill="white" stroke="#191919"/>
<rect x="12" y="12" width="103" height="136" rx="4" fill="#1A1A1A"/>
<path d="M72.4912 112H55.6589C58.8272 109.627 60.9396 99.1477 61.5998 94.2045C53.6787 99.4772 36.6612 102.641 30.9054 88.2726C24.9647 73.443 49.7181 51.3633 62.5898 41.8065C76.4517 50.0451 102.789 70.6748 97.2446 87.284C91.6998 103.893 74.4715 98.8181 66.5504 94.2045C65.7583 101.323 70.1809 109.034 72.4912 112Z" fill="white"/>
<path d="M59.9204 93.8L42 90.7569L52.5945 53L63.4144 55.705L66.6 64.4L67.2 56.6L78.7425 58.8608L81 89L69 92.6L61.2729 77.5702L59.9204 93.8Z" fill="#191919"/>
<path d="M58.6144 88.9794L44.2006 86.6688L53.0029 55.3106L61.4751 57.0711L67.4167 67.7438L68.0768 58.0613L76.7691 59.9318L78.7496 85.1284L68.627 88.7593L60.3748 73.6854L58.6144 88.9794Z" fill="white"/>
</svg>
