<svg width="100" height="100" viewBox="0 0 100 100" fill="none" xmlns="http://www.w3.org/2000/svg">
<path d="M50.8863 81.9972C67.927 81.9972 77.1644 78.8908 79.6792 77.5595C85.6037 74.423 91.323 69.1311 93.7541 61.14C95.4505 55.5636 95.598 49.1166 93.0445 40.7265C91.2603 34.8644 88.8212 29.9062 85.9441 25.7481C76.4312 11.9998 62.1301 7 50.8863 7C38.9555 7 24.0792 11.7127 13.6965 27.8572C11.335 31.5292 9.20587 35.7927 7.39678 40.7265C4.35348 49.0265 4.49034 55.9789 6.23742 61.5838C8.97406 70.3633 15.6616 75.8364 20.2661 78.0033C23.3725 79.3346 33.8455 81.9972 50.8863 81.9972Z" fill="#EC1111" stroke="black" stroke-width="3"/>
<path d="M13.6965 27.7474C11.335 31.4194 9.20587 35.6829 7.39678 40.6167C4.35348 48.9167 4.49034 55.8691 6.23742 61.474C8.72378 58.3676 14.0341 50.5572 15.3846 44.1669C16.7352 37.7766 14.8219 30.558 13.6965 27.7474Z" fill="white"/>
<path d="M93.0445 40.6167C91.2603 34.7546 88.8212 29.7964 85.9441 25.6384C85.0566 29.2998 83.5843 38.0639 85.0044 45.1642C86.4245 52.2646 91.4292 58.7732 93.7541 61.14C95.4505 55.5636 95.598 49.0068 93.0445 40.6167Z" fill="white"/>
<path d="M13.6965 27.7474C11.335 31.4194 9.20587 35.6829 7.39678 40.6167C4.35348 48.9167 4.49034 55.8691 6.23742 61.474C8.72378 58.3676 14.0341 50.5572 15.3846 44.1669C16.7352 37.7766 14.8219 30.558 13.6965 27.7474Z" stroke="black" stroke-width="3"/>
<path d="M93.0445 40.6167C91.2603 34.7546 88.8212 29.7964 85.9441 25.6384C85.0566 29.2998 83.5843 38.0639 85.0044 45.1642C86.4245 52.2646 91.4292 58.7732 93.7541 61.14C95.4505 55.5636 95.598 49.0068 93.0445 40.6167Z" stroke="black" stroke-width="3"/>
<path d="M70.9531 29.6323C70.9531 40.7847 61.7192 49.877 50.2646 49.877C38.8099 49.877 29.576 40.7847 29.576 29.6323C29.576 18.4798 38.8099 9.38754 50.2646 9.38754C61.7192 9.38754 70.9531 18.4798 70.9531 29.6323Z" fill="white" stroke="black" stroke-width="3"/>
<path d="M50.6042 61.14C38.5337 61.14 26.6406 67.6486 22.2029 70.9029C20.5758 78.2991 23.978 93.0914 50.6042 93.0914C77.2304 93.0914 79.4493 78.2991 77.2304 70.9029C73.3844 67.6486 62.6748 61.14 50.6042 61.14Z" fill="#F9E3C2" stroke="black" stroke-width="3"/>
<path d="M43.5039 67.7965C43.5039 65.6664 42.0247 65.1339 41.285 65.1339C39.51 65.1339 39.0662 66.909 39.0662 67.7965V77.5595C39.0662 78.447 39.9537 80.2221 41.285 80.2221C42.6164 80.2221 43.5039 78.447 43.5039 77.5595V67.7965Z" fill="black" stroke="black"/>
<path d="M42.6163 68.2403C42.6163 67.1753 41.7288 66.0215 41.285 66.0215C40.3975 66.0215 40.2496 67.3528 39.9537 67.7965C39.6579 68.6841 39.2437 70.1041 39.9537 70.4592C40.5441 70.7543 41.285 70.9029 42.1726 70.4592C42.7436 70.1736 42.6163 69.3054 42.6163 68.2403Z" fill="white"/>
<path d="M61.2547 67.7965C61.2547 65.6664 59.7755 65.1339 59.0359 65.1339C57.2608 65.1339 56.817 66.909 56.817 67.7965V77.5595C56.817 78.447 57.7046 80.2221 59.0359 80.2221C60.3672 80.2221 61.2547 78.447 61.2547 77.5595V67.7965Z" fill="black" stroke="black"/>
<path d="M60.3672 68.2403C60.3672 67.1753 59.4796 66.0215 59.0359 66.0215C58.1483 66.0215 58.0004 67.3528 57.7046 67.7965C57.4087 68.6841 56.9945 70.1041 57.7045 70.4592C58.2949 70.7543 59.0359 70.9029 59.9234 70.4592C60.4945 70.1736 60.3672 69.3054 60.3672 68.2403Z" fill="white"/>
</svg>
