<svg width="100" height="100" viewBox="0 0 100 100" fill="none" xmlns="http://www.w3.org/2000/svg">
<path d="M81.554 81.758C79.8193 74.8195 69.556 72.5066 64.6412 72.2175C59.7263 71.9284 51.6315 71.3502 51.6315 78.7224C51.6315 86.8881 62.6174 89.5639 67.2431 89.9976C72.7362 90.1422 83.2886 88.6966 81.554 81.758Z" fill="#EF4914" stroke="black" stroke-width="2"/>
<path d="M40.7565 72.8948C35.785 67.7532 25.7402 70.8818 21.3393 73.0889C16.9384 75.2959 9.63894 78.8426 13.3251 85.2271C17.4079 92.2989 28.2599 89.1232 32.4828 87.1859C37.3121 84.5646 45.728 78.0365 40.7565 72.8948Z" fill="#EF4914" stroke="black" stroke-width="2"/>
<path d="M33.8514 58.774L48.1622 56.6057H58.5701C60.4493 56.8948 64.2944 59.8148 64.6413 69.1819C64.9882 78.5489 54.9562 81.758 49.8968 82.1917C44.5484 82.4808 33.4177 81.9315 31.6831 77.4214C29.9484 72.9113 32.4059 63.1106 33.8514 58.774Z" fill="white" stroke="black" stroke-width="2"/>
<path d="M29.5147 17.5762C33.7079 7.20355 45.1265 5.14455 49.4631 5C59.5241 5 65.5086 11.0713 67.2433 14.1069C68.9779 17.1425 69.1514 22.0863 71.5799 26.2494C74.6155 31.4533 79.9766 36.4695 84.1561 40.1266C87.6254 43.1622 88.2036 49.9562 88.059 53.1364C86.758 60.075 77.6511 64.6826 69.8453 62.2433C64.364 60.5304 57.7027 58.774 48.1622 59.2077C38.6315 59.6409 34.285 62.6769 22.5761 63.1106C8.69117 63.6249 9.2772 51.2572 11.3009 45.7642C13.9029 35.7899 21.2752 37.9583 29.5147 17.5762Z" fill="#EF4914" stroke="black" stroke-width="2"/>
<path d="M68.6067 33.853C69.4611 39.5701 66.3296 44.4222 62.0632 45.0598C57.7968 45.6975 53.3835 41.9729 52.529 36.2558C51.6746 30.5387 54.8062 25.6865 59.0725 25.0489C63.3389 24.4113 67.7523 28.1359 68.6067 33.853Z" fill="white" stroke="black" stroke-width="2"/>
<ellipse cx="56.7003" cy="32.0129" rx="3.46929" ry="4.33661" transform="rotate(-10.5 56.7003 32.0129)" fill="black"/>
<ellipse cx="57.7028" cy="31.0196" rx="0.867323" ry="1.30098" fill="#D9D9D9"/>
<path d="M37.3207 22.7801C43.978 28.9936 47.2949 31.1643 49.0295 31.0197C53.3661 31.0197 59.871 25.3821 64.6413 18.0098C68.2666 12.4071 73.4591 14.396 75.9165 16.2752C74.6155 12.3723 71.1462 8.03564 67.2433 8.4693C63.3403 8.90296 59.4374 18.7326 55.9681 24.5148C54.6671 26.6831 52.4988 30.1524 49.0295 30.586C46.2541 30.9329 43.6428 25.4699 40.3563 21.4791C38.3325 19.0217 33.4177 14.1936 28.2138 14.5406C23.0098 14.8875 18.8178 21.0455 17.3722 24.0811C21.2752 20.7564 30.8157 16.7089 37.3207 22.7801Z" fill="black"/>
<path d="M45.9939 21.4791C45.2712 24.5148 44.7797 30.6727 48.5959 31.0197C52.4121 31.3666 52.2097 25.093 51.6315 21.9128" stroke="black"/>
<path d="M46.0563 37.1926C45.2018 42.9097 40.7885 46.6342 36.5221 45.9966C32.2558 45.359 29.1242 40.5068 29.9786 34.7897C30.833 29.0726 35.2464 25.3481 39.5128 25.9857C43.7791 26.6233 46.9107 31.4755 46.0563 37.1926Z" fill="white" stroke="black" stroke-width="2"/>
<ellipse cx="42.8231" cy="32.8803" rx="3.46929" ry="4.33661" transform="rotate(10.5 42.8231 32.8803)" fill="black"/>
<ellipse cx="42.0909" cy="31.887" rx="0.867323" ry="1.30098" fill="#D9D9D9"/>
<path d="M23.0098 56.6057C23.5928 56.4565 24.171 56.312 24.7444 56.172L25.1781 49.6671C25.3227 48.9443 25.9587 47.9325 27.3465 49.6671C29.0811 51.8354 31.2494 53.1197 31.6831 54.6458C48.3244 51.4007 60.3092 52.1443 67.6769 53.8506C68.3708 51.6466 72.3027 49.565 74.1819 48.7998C74.5288 51.2283 74.0373 54.5325 73.7482 55.881C72.2968 55.1729 70.2737 54.452 67.6769 53.8506C60.3092 52.1443 48.3244 51.4007 31.6831 54.6458C29.4538 55.0806 27.1409 55.5869 24.7444 56.172L23.0098 56.6057Z" fill="white"/>
<path d="M75.0492 56.6057C74.6839 56.3693 74.2503 56.1259 73.7482 55.881M24.7444 56.172C24.171 56.312 23.5928 56.4565 23.0098 56.6057L24.7444 56.172ZM24.7444 56.172L25.1781 49.6671C25.3227 48.9443 25.9587 47.9325 27.3465 49.6671C29.0811 51.8354 31.2494 53.1197 31.6831 54.6458M24.7444 56.172C27.1409 55.5869 29.4538 55.0806 31.6831 54.6458M31.6831 54.6458C48.3244 51.4007 60.3092 52.1443 67.6769 53.8506M73.7482 55.881C74.0373 54.5325 74.5288 51.2283 74.1819 48.7998C72.3027 49.565 68.3708 51.6466 67.6769 53.8506M73.7482 55.881C72.2968 55.1729 70.2737 54.452 67.6769 53.8506" stroke="black" stroke-width="2"/>
</svg>
