<svg width="100" height="100" viewBox="0 0 100 100" fill="none" xmlns="http://www.w3.org/2000/svg">
<path d="M94.9866 43.5661C95.3093 39.693 89.7417 42.4902 86.9175 44.373V58.4938C92.9693 54.4593 94.5831 48.4075 94.9866 43.5661Z" fill="#D9D9D9" stroke="black" stroke-width="2"/>
<path d="M63.5174 12.9038C57.1966 10.7521 41.6503 8.62723 30.0309 17.3418C20.0945 24.7941 14.7607 37.8916 12.6671 45.9868C9.05141 45.5834 4.69416 40.6612 5.01692 43.5661C5.33968 46.4709 6.22728 52.0386 6.63073 54.4593C7.57212 59.9731 13.5701 73.5829 30.0309 83.9112C46.4917 94.2396 63.7863 88.7527 70.3761 84.7181C77.5037 80.5491 91.1135 66.8856 88.5314 45.5834C85.9493 24.2811 70.7795 14.9211 63.5174 12.9038Z" fill="#E9E9E9"/>
<path d="M11.8756 49.6179C12.0509 48.5855 12.3125 47.3579 12.6671 45.9868M12.6671 45.9868C14.7607 37.8916 20.0945 24.7941 30.0309 17.3418C41.6503 8.62723 57.1966 10.7521 63.5174 12.9038C70.7795 14.9211 85.9493 24.2811 88.5314 45.5834C91.1135 66.8856 77.5037 80.5491 70.3761 84.7181C63.7863 88.7527 46.4917 94.2396 30.0309 83.9112C13.5701 73.5829 7.57212 59.9731 6.63073 54.4593C6.22728 52.0386 5.33968 46.4709 5.01692 43.5661C4.69416 40.6612 9.05141 45.5834 12.6671 45.9868ZM28.8205 54.4593C26.6688 51.2317 22.0425 43.6468 20.7515 39.1281C19.4605 34.6095 21.8274 33.4798 23.1722 33.4798C25.7274 33.3453 32.7743 34.4481 40.5206 39.935" stroke="black" stroke-width="2"/>
<path d="M47.9335 55.3141C47.5301 52.3555 47.6914 47.1644 51.5646 50.0692C51.9598 50.3656 52.3625 50.6478 52.7749 50.9171C55.0547 52.4064 57.6285 53.5063 60.8439 54.4776C61.2376 54.5965 61.6408 54.7135 62.0543 54.829C63.6398 55.272 65.3762 55.6937 67.2992 56.121C67.5707 56.1639 67.8397 56.2027 68.1061 56.2377C68.3777 56.2733 68.6467 56.305 68.913 56.3328C71.1241 56.5641 73.1486 56.5337 74.9647 56.3612C78.2405 56.0502 80.6875 55.3955 82.4796 54.8627C82.7699 54.7764 83.1898 54.5779 83.4372 54.5072C85.1855 54.1038 87.6331 54.5879 83.4372 59.7521C79.2413 64.9163 73.082 75.3522 70.5268 79.9246C70.2819 80.3225 69.881 80.7776 69.3164 81.2127C67.4004 82.6893 63.5996 83.9363 57.6163 81.9419C52.1391 80.1161 49.5665 71.459 48.5293 63.7866C48.0997 60.6082 47.9335 57.5989 47.9335 55.3141Z" fill="#980909" stroke="black" stroke-width="2"/>
<path d="M57.6767 82.1669C52.1994 80.3411 49.6268 71.684 48.5896 64.0116C51.3497 63.4736 57.9994 63.366 62.5181 67.2392C67.0367 71.1123 68.3588 78.3715 68.7622 81.4905C66.8462 82.9671 63.6599 84.1613 57.6767 82.1669Z" fill="#FF0E0E" stroke="black" stroke-width="2"/>
<path d="M54.6414 64.908L52.6242 50.8282C54.904 52.3175 57.4778 53.4174 60.6932 54.3887C61.0868 54.5076 61.4901 54.6246 61.9035 54.7401C63.4891 55.1831 65.2254 55.6047 67.1484 56.0321C67.4199 56.075 67.6889 56.1138 67.9553 56.1487C68.227 56.1844 68.4959 56.2161 68.7622 56.2439C70.9734 56.4752 72.9979 56.4448 74.814 56.2723C78.0897 55.9612 80.6875 55.3955 82.4796 54.8627C82.1568 58.6027 77.2347 64.3936 74.814 66.9253C75.1367 64.3432 74.202 60.2011 73.6942 58.4528C72.4011 60.407 70.557 62.1193 69.5691 62.8908L68.7622 56.2439C68.4959 56.2161 68.227 56.1844 67.9553 56.1487C67.3098 58.5014 64.1898 60.8168 62.7104 61.6804L61.9035 54.7401C61.4901 54.6246 61.0868 54.5076 60.6932 54.3887C60.0477 58.5609 56.3897 63.14 54.6414 64.908Z" fill="white"/>
<path d="M60.6932 54.3887C57.4778 53.4174 54.904 52.3175 52.6242 50.8282L54.6414 64.908C56.3897 63.14 60.0477 58.5609 60.6932 54.3887ZM60.6932 54.3887C61.0868 54.5076 61.4901 54.6246 61.9035 54.7401M61.9035 54.7401C63.4891 55.1831 65.2254 55.6047 67.1484 56.0321C67.4199 56.075 67.6889 56.1138 67.9553 56.1487M61.9035 54.7401L62.7104 61.6804C64.1898 60.8168 67.3098 58.5014 67.9553 56.1487M67.9553 56.1487C68.227 56.1844 68.4959 56.2161 68.7622 56.2439M68.7622 56.2439L69.5691 62.8908C70.557 62.1193 72.4011 60.407 73.6942 58.4528M68.7622 56.2439C70.9734 56.4752 72.9979 56.4448 74.814 56.2723M74.814 56.2723C74.557 57.0088 74.1616 57.7466 73.6942 58.4528M74.814 56.2723C78.0897 55.9612 80.6875 55.3955 82.4796 54.8627C82.1568 58.6027 77.2347 64.3936 74.814 66.9253C75.1367 64.3432 74.202 60.2011 73.6942 58.4528" stroke="black" stroke-width="2"/>
<path d="M58.2725 35.9005C61.3656 39.3971 69.0043 44.5344 74.814 37.1109C76.6968 39.8005 81.3499 43.7275 84.9003 37.9178" stroke="black" stroke-width="2"/>
<ellipse cx="79.8831" cy="45.5586" rx="2.42071" ry="4.03451" transform="rotate(5 79.8831 45.5586)" fill="black"/>
<ellipse cx="79.9896" cy="44.1716" rx="1.21035" ry="2.01726" transform="rotate(0.5 79.9896 44.1716)" fill="white"/>
<ellipse cx="67.4575" cy="45.3574" rx="2.42071" ry="4.03451" transform="rotate(4.5 67.4575 45.3574)" fill="black"/>
<ellipse cx="67.5519" cy="43.9695" rx="1.21035" ry="2.01726" fill="white"/>
</svg>
