<svg width="100" height="100" viewBox="0 0 100 100" fill="none" xmlns="http://www.w3.org/2000/svg">
<path d="M16.4711 91.4746C8.70606 89.0039 5.58826 79.5623 5 75.1503C8.97083 76.0327 12.0592 76.1931 15.5887 74.2679C27.2363 67.9147 36.6191 71.6207 39.8546 74.2679L50.4433 73.8267C60.1496 68.5323 66.7676 72.0619 71.6208 74.2679C75.5033 76.0327 81.4742 75.5915 83.9743 75.1503C83.5331 80.4447 79.1211 90.151 69.856 93.2394C62.4439 95.7101 54.4141 91.6217 51.3257 89.2686H38.531C34.4131 91.0334 24.2362 93.9453 16.4711 91.4746Z" fill="#07A603"/>
<path d="M20.0008 80.0035C22.795 77.7975 30.5012 74.7974 38.9722 80.4447H50.8846C53.8446 78.6045 61.7446 76.0282 69.6636 80.4447M5 75.1503C5.58826 79.5623 8.70606 89.0039 16.4711 91.4746C24.2362 93.9453 34.4131 91.0334 38.531 89.2686H51.3257C54.4141 91.6217 62.4439 95.7101 69.856 93.2394C79.1211 90.151 83.5331 80.4447 83.9743 75.1503C81.4742 75.5915 75.5033 76.0327 71.6208 74.2679C66.7676 72.0619 60.1496 68.5323 50.4433 73.8267L39.8546 74.2679C36.6191 71.6207 27.2363 67.9147 15.5887 74.2679C12.0592 76.1931 8.97083 76.0327 5 75.1503Z" stroke="black" stroke-width="2"/>
<path d="M43.8254 94.563C38.884 94.21 37.6486 89.7098 37.6486 87.5038C37.6486 83.5331 42.6489 65.0028 43.3842 62.3556C44.1195 59.7084 46.1196 56.0024 48.2374 62.3556C50.3551 68.7088 50.8845 81.7683 50.8845 87.5038C50.5904 90.004 48.7668 94.916 43.8254 94.563Z" fill="#07A603" stroke="black" stroke-width="2"/>
<path d="M35.8027 58.5319C25.9198 46.5313 26.3904 31.4718 27.8611 25.4421C28.2138 24.3841 28.7022 23.1857 29.3296 21.9125C30.5298 19.4767 32.2388 16.767 34.479 14.243C34.4092 14.2519 34.4278 14.2291 34.5297 14.186C38.2062 10.0631 43.3037 6.44577 49.9209 5.34353C52.107 4.9794 54.4588 4.88974 56.9801 5.14702C62.7082 5.73152 67.3684 6.91291 71.0984 8.3546C78.6305 11.2658 82.37 15.2383 83.4519 17.5005L84.3343 23.6773L58.3037 30.2953L54.7741 34.7072L64.0392 50.5903L72.8632 59.8555L71.0984 65.591C68.0567 66.6439 63.4142 67.641 58.3037 67.7049C51.806 67.7862 44.5517 66.3591 38.869 61.6203C37.7842 60.7157 36.7567 59.6904 35.8027 58.5319Z" fill="#EC1111"/>
<path d="M38.869 61.6203C37.7842 60.7157 36.7567 59.6904 35.8027 58.5319C25.9198 46.5313 26.3904 31.4718 27.8611 25.4421C28.2138 24.3841 28.7022 23.1857 29.3296 21.9125M38.869 61.6203C40.0529 58.5319 43.7442 52.7963 49.0385 54.5611C54.3329 56.3259 56.5389 59.4143 56.9801 60.7379C57.4213 61.853 58.3037 64.8076 58.3037 67.7049M38.869 61.6203C44.5517 66.3591 51.806 67.7862 58.3037 67.7049M58.3037 67.7049C63.4142 67.641 68.0567 66.6439 71.0984 65.591L72.8632 59.8555L64.0392 50.5903L54.7741 34.7072L58.3037 30.2953L84.3343 23.6773L83.4519 17.5005C82.37 15.2383 78.6305 11.2658 71.0984 8.3546M29.3296 21.9125C29.8695 23.9714 32.0083 27.9128 36.2438 27.2069C40.4793 26.501 44.1854 22.7949 45.509 21.0301C46.8326 18.8241 46.8326 14.8534 42.4206 13.5298C37.9646 13.1584 35.0712 13.9573 34.5297 14.186M29.3296 21.9125C30.5298 19.4767 32.2388 16.767 34.479 14.243M34.479 14.243C34.4092 14.2519 34.4278 14.2291 34.5297 14.186M34.479 14.243C34.4959 14.224 34.5128 14.205 34.5297 14.186M34.5297 14.186C38.2062 10.0631 43.3037 6.44577 49.9209 5.34353M49.9209 5.34353C52.107 4.9794 54.4588 4.88974 56.9801 5.14702C62.7082 5.73152 67.3684 6.91291 71.0984 8.3546M49.9209 5.34353C49.6268 7.66535 50.2739 12.6958 55.2153 14.243C60.1567 15.7902 65.6466 14.4122 67.7739 13.5298C68.8821 12.8739 71.0984 10.9207 71.0984 8.3546M50.8033 41.3252C49.4797 39.4133 45.509 35.9426 40.2146 37.3544C33.5966 39.1192 37.1262 47.9431 40.2146 48.3843C43.303 48.8255 50.8033 54.1199 50.8033 41.3252Z" stroke="black" stroke-width="2"/>
<path d="M49.3348 54.7081C44.0405 52.9434 40.3492 58.6789 39.1653 61.7673C44.848 66.5061 52.1023 67.9333 58.6 67.852C58.6 64.9547 57.7176 62 57.2764 60.8849C56.8352 59.5613 54.6292 56.4729 49.3348 54.7081Z" fill="white"/>
<path d="M40.5109 37.5015C45.8053 36.0896 49.776 39.5604 51.0996 41.4722C51.0996 54.2669 43.5993 48.9726 40.5109 48.5314C37.4225 48.0902 33.8929 39.2662 40.5109 37.5015Z" fill="white"/>
<path d="M36.5401 27.3539C32.3046 28.0598 30.1658 24.1185 29.6259 22.0596C30.8262 19.6237 32.5351 16.9141 34.7753 14.39C34.3341 14.4464 37.4225 13.2356 42.7169 13.6768C47.1289 15.0004 47.1289 18.9712 45.8053 21.1772C44.4817 22.9419 40.7756 26.648 36.5401 27.3539Z" fill="white"/>
<path d="M57.2764 5.29405C54.7551 5.03678 52.4033 5.12643 50.2172 5.49056C49.9231 7.81239 50.5702 12.8428 55.5116 14.39C60.453 15.9372 65.9429 14.5592 68.0702 13.6768C69.1784 13.0209 71.3947 11.0677 71.3947 8.50163C67.6646 7.05995 63.0045 5.87855 57.2764 5.29405Z" fill="white"/>
<path d="M49.3348 54.7081C44.0405 52.9434 40.3492 58.6789 39.1653 61.7673C44.848 66.5061 52.1023 67.9333 58.6 67.852C58.6 64.9547 57.7176 62 57.2764 60.8849C56.8352 59.5613 54.6292 56.4729 49.3348 54.7081Z" stroke="black" stroke-width="2"/>
<path d="M40.5109 37.5015C45.8053 36.0896 49.776 39.5604 51.0996 41.4722C51.0996 54.2669 43.5993 48.9726 40.5109 48.5314C37.4225 48.0902 33.8929 39.2662 40.5109 37.5015Z" stroke="black" stroke-width="2"/>
<path d="M36.5401 27.3539C32.3046 28.0598 30.1658 24.1185 29.6259 22.0596C30.8262 19.6237 32.5351 16.9141 34.7753 14.39C34.3341 14.4464 37.4225 13.2356 42.7169 13.6768C47.1289 15.0004 47.1289 18.9712 45.8053 21.1772C44.4817 22.9419 40.7756 26.648 36.5401 27.3539Z" stroke="black" stroke-width="2"/>
<path d="M57.2764 5.29405C54.7551 5.03678 52.4033 5.12643 50.2172 5.49056C49.9231 7.81239 50.5702 12.8428 55.5116 14.39C60.453 15.9372 65.9429 14.5592 68.0702 13.6768C69.1784 13.0209 71.3947 11.0677 71.3947 8.50163C67.6646 7.05995 63.0045 5.87855 57.2764 5.29405Z" stroke="black" stroke-width="2"/>
<path d="M90.5923 38.531L92.3571 26.1775L59.2673 29.2659L55.2965 41.1782L82.2095 61.9145L87.9451 49.1197L76.0328 53.5317L73.8268 52.6493L77.7976 43.3842L65.0029 46.9138L57.9437 41.1782L60.5909 31.9131L69.856 31.0307L77.7976 40.2958L83.0919 30.1483L90.5923 38.531Z" fill="#FAFFBE" stroke="black" stroke-width="2"/>
<path d="M69.4148 33.6778C76.8269 33.6778 85.7391 31.913 89.2687 31.0306C95.8867 28.3835 95.8866 23.5303 93.6806 20.0007C91.4936 16.5015 88.0057 17.3387 77.198 19.9328L76.9151 20.0007C65.8852 22.6479 61.9145 22.2067 54.4141 24.8539C45.4832 28.006 46.7667 37.5015 48.2373 41.1782C49.5609 43.3842 54.496 48.6441 61.9145 54.4141C67.65 58.8751 69.4148 66.2611 76.9151 67.65C86.445 69.4148 86.1803 63.6792 84.8567 60.5908C83.239 57.7966 78.1505 51.1492 70.7384 46.9137C63.3263 42.6782 61.7674 38.6781 61.9145 37.2074C61.3262 36.0309 62.0027 33.6778 69.4148 33.6778Z" fill="white" stroke="black" stroke-width="2"/>
</svg>
