<svg width="100" height="100" viewBox="0 0 100 100" fill="none" xmlns="http://www.w3.org/2000/svg">
<path d="M68.507 88.3987L67.507 82.8987L75.507 67.3987C75.6737 66.5654 78.407 64.8987 88.007 64.8987C97.607 64.8987 95.007 71.8987 92.507 75.3987C98.107 83.3987 91.8404 88.0654 88.007 89.3987C87.007 96.8987 83.007 99.3987 77.507 96.8987C73.107 94.8987 69.6737 90.3987 68.507 88.3987Z" fill="#FF602E" stroke="black" stroke-width="2"/>
<path d="M46.507 94.3988C24.107 93.1988 17.1737 82.5654 16.507 77.3988C13.1737 65.0654 7.36041 41.5211 19.507 31.3988C28.507 23.8987 42.507 19.8987 57.007 24.8988C78.1462 32.1882 79.0071 56.3988 79.5071 63.3988C80.0071 70.3988 74.507 95.8988 46.507 94.3988Z" fill="#EC1111" stroke="black" stroke-width="2"/>
<path d="M44.007 71.9094C56.007 71.5094 65.3404 82.4094 68.507 87.9094C49.507 102.399 16.507 91.3987 16.507 74.9094C20.6737 74.0761 32.007 72.3094 44.007 71.9094Z" fill="white" stroke="black"/>
<path d="M19.507 10.8987C24.707 12.0987 29.6737 22.0654 31.507 26.8987C43.1071 24.8987 51.6737 26.0654 54.507 26.8987C60.007 29.232 70.607 31.8987 69.007 23.8987C67.407 15.8987 59.3404 7.56538 55.507 4.39871C53.8404 3.56538 50.507 2.29871 50.507 3.89871C50.507 5.49871 49.8404 7.89871 49.507 8.89871C48.3404 7.39871 44.907 3.99872 40.507 2.39872C36.107 0.79872 29.6737 4.39872 27.007 6.39872V8.89872C22.3404 9.06539 14.307 9.69872 19.507 10.8987Z" fill="#FF602E" stroke="black" stroke-width="2"/>
<path d="M31.507 8.89868C34.3404 11.232 39.507 17.6987 37.507 24.8987" stroke="black"/>
<path d="M62.507 27.8987C52.507 36.6987 51.007 45.5654 51.507 48.8987C52.007 53.8987 57.107 63.0987 73.507 59.8987C89.907 56.6987 85.6737 48.8088 81.507 45.4755C89.2851 39.6019 85.5782 33.4512 82.3899 30.8987C85.8644 26.1076 85.3529 21.5717 83.007 20.3987C80.007 18.8987 75.007 16.8987 62.507 27.8987Z" fill="white"/>
<path d="M20.507 18.3987C23.707 19.5987 29.507 24.2321 32.007 26.3987L21.507 38.8987C16.6737 37.0654 7.10703 31.1987 7.50703 22.3987C7.90703 13.5987 16.3404 16.0654 20.507 18.3987Z" fill="white"/>
<path d="M78.507 34.8987C80.1423 33.5905 81.4211 32.2347 82.3899 30.8987M81.507 45.4755C85.6737 48.8088 89.907 56.6987 73.507 59.8987C57.107 63.0987 52.007 53.8987 51.507 48.8987C51.007 45.5654 52.507 36.6987 62.507 27.8987C75.007 16.8987 80.007 18.8987 83.007 20.3987C85.3529 21.5717 85.8644 26.1076 82.3899 30.8987M82.3899 30.8987C85.929 33.7321 90.107 40.9987 78.507 47.3987M32.007 26.3987C29.507 24.2321 23.707 19.5987 20.507 18.3987C16.3404 16.0654 7.90703 13.5987 7.50703 22.3987C7.10703 31.1987 16.6737 37.0654 21.507 38.8987L32.007 26.3987Z" stroke="black" stroke-width="2"/>
<path d="M10.507 31.3987C16.107 25.3987 19.1737 31.5654 20.007 35.3987C20.8071 30.1987 25.007 28.8987 27.007 28.8987C29.6737 28.5654 35.607 30.4987 38.007 40.8987C40.407 51.2987 33.007 59.8987 29.007 62.8987C22.3404 63.232 8.50704 62.7987 6.50704 58.3987C4.00704 52.8987 3.50704 38.8987 10.507 31.3987Z" fill="white" stroke="black" stroke-width="2"/>
<ellipse cx="12.507" cy="44.8987" rx="3" ry="5" fill="black"/>
<ellipse cx="12.507" cy="44.8987" rx="3" ry="5" fill="black"/>
<ellipse cx="25.507" cy="44.8987" rx="3" ry="5" fill="black"/>
<ellipse cx="25.507" cy="44.8987" rx="3" ry="5" fill="black"/>
<path d="M19.007 84.3987C14.6737 84.5654 6.20703 82.9987 7.00703 75.3987C7.13686 74.1652 7.53187 73.1785 8.12534 72.3987C4.62001 71.1987 3.91923 66.8987 4.00701 64.8987C4.34035 62.0654 6.70701 56.3987 13.507 56.3987C22.007 56.3987 35.007 62.3987 34.507 72.8987C34.107 81.2987 24.007 84.0654 19.007 84.3987Z" fill="#FF602E"/>
<path d="M24.007 71.3987C19.5393 69.8629 11.1886 68.3739 8.12534 72.3987M8.12534 72.3987C7.53187 73.1785 7.13686 74.1652 7.00703 75.3987C6.20703 82.9987 14.6737 84.5654 19.007 84.3987C24.007 84.0654 34.107 81.2987 34.507 72.8987C35.007 62.3987 22.007 56.3987 13.507 56.3987C6.70701 56.3987 4.34035 62.0654 4.00701 64.8987C3.91923 66.8987 4.62001 71.1987 8.12534 72.3987Z" stroke="black" stroke-width="2"/>
</svg>
