<svg width="100" height="100" viewBox="0 0 100 100" fill="none" xmlns="http://www.w3.org/2000/svg">
<path d="M51.8286 6.76615L63.5533 29.1367C64.2051 30.3803 65.3999 31.2484 66.784 31.484L91.6828 35.7219C92.8755 35.9249 93.3495 37.3838 92.5039 38.2491L74.8514 56.3128C73.8701 57.317 73.4137 58.7216 73.6174 60.1107L77.281 85.1005C77.4564 86.2975 76.2155 87.1991 75.1313 86.6623L52.4967 75.4558C51.2384 74.8328 49.7616 74.8328 48.5033 75.4558L25.8687 86.6623C24.7845 87.1992 23.5436 86.2975 23.719 85.1005L27.3826 60.1107C27.5863 58.7216 27.1299 57.317 26.1486 56.3128L8.49609 38.2491C7.65052 37.3838 8.12453 35.9249 9.31719 35.7219L34.216 31.484C35.6001 31.2484 36.7949 30.3803 37.4467 29.1367L49.1714 6.76615C49.733 5.69459 51.267 5.69459 51.8286 6.76615Z" fill="#FFE601" stroke="black" stroke-width="3"/>
<path d="M44.3815 38.1762C44.3815 35.8331 42.7543 35.2473 41.9407 35.2473C39.9881 35.2473 39.5 37.1999 39.5 38.1762V48.9154C39.5 49.8917 40.4763 51.8443 41.9407 51.8443C43.4052 51.8443 44.3815 49.8917 44.3815 48.9154V38.1762Z" fill="black" stroke="black"/>
<path d="M43.4052 38.6643C43.4052 37.4928 42.4289 36.2236 41.9407 36.2236C40.9644 36.2236 40.8017 37.688 40.4763 38.1762C40.1509 39.1525 39.6953 40.7146 40.4763 41.1051C41.1257 41.4298 41.9407 41.5932 42.917 41.1051C43.5452 40.791 43.4052 39.8359 43.4052 38.6643Z" fill="white"/>
<path d="M61.9814 38.1762C61.9814 35.8331 60.3543 35.2473 59.5407 35.2473C57.5881 35.2473 57.1 37.1999 57.1 38.1762V48.9154C57.1 49.8917 58.0763 51.8443 59.5407 51.8443C61.0052 51.8443 61.9814 49.8917 61.9814 48.9154V38.1762Z" fill="black" stroke="black"/>
<path d="M61.0052 38.6643C61.0052 37.4928 60.0289 36.2236 59.5407 36.2236C58.5644 36.2236 58.4017 37.688 58.0763 38.1762C57.7508 39.1525 57.2952 40.7146 58.0763 41.1051C58.7257 41.4298 59.5407 41.5932 60.517 41.1051C61.1452 40.791 61.0052 39.8359 61.0052 38.6643Z" fill="white"/>
</svg>
