<svg width="100" height="100" viewBox="0 0 100 100" fill="none" xmlns="http://www.w3.org/2000/svg">
<path d="M26.743 90.236C33.5262 92.3781 45.0397 91.1285 49.9486 90.236C53.3699 90.9798 62.2654 92.9136 74.0467 91.1285C85.828 89.3435 91.4509 76.6994 92.3435 71.0467C84.3108 69.2617 83.8645 63.014 71.8154 65.2453C62.1762 67.0304 54.1137 79.6745 51.2874 85.7734L49.5023 86.6659C40.5771 80.4182 47.271 78.6332 37.007 69.708C26.743 60.7828 14.6939 65.6916 12.9089 67.4767C11.4808 68.9047 9.04128 69.5592 8 69.708C9.78505 83.9884 18.264 87.5585 26.743 90.236Z" fill="#67DD30" stroke="black" stroke-width="2"/>
<path d="M17.3715 73.7243C22.4291 74.9143 35.3112 79.615 46.3785 88.8972H53.965C57.8326 84.5833 69.5841 75.3309 85.6495 72.8318" stroke="black"/>
<path d="M54.4112 93.3598C51.9122 95.5019 47.7173 95.5911 44.5935 93.3598C45.9322 73.7243 45.1885 72.683 44.5935 63.014L54.4112 63.9065V93.3598Z" fill="#67DD30" stroke="black" stroke-width="2"/>
<path d="M89.5584 36.6846C89.5584 53.4232 72.2583 67.3692 50.3949 67.3692C28.5314 67.3692 11.2313 53.4232 11.2313 36.6846C11.2313 19.946 28.5314 6 50.3949 6C72.2583 6 89.5584 19.946 89.5584 36.6846Z" fill="#FF6955" stroke="black" stroke-width="2"/>
<path d="M79.7407 34.4533C79.7407 40.4843 76.5464 46.0138 71.2451 50.0677C65.9429 54.1224 58.5746 56.6589 50.3949 56.6589C42.2151 56.6589 34.8468 54.1224 29.5446 50.0677C24.2433 46.0138 21.0491 40.4843 21.0491 34.4533C21.0491 28.4222 24.2433 22.8927 29.5446 18.8388C34.8468 14.7842 42.2151 12.2477 50.3949 12.2477C58.5746 12.2477 65.9429 14.7842 71.2451 18.8388C76.5464 22.8927 79.7407 28.4222 79.7407 34.4533Z" fill="#FFD542" stroke="black" stroke-width="2"/>
<path d="M69.9229 34.4533C69.9229 37.9879 67.9098 41.284 64.4616 43.7361C61.0155 46.1866 56.2031 47.7337 50.8411 47.7337C45.4791 47.7337 40.6667 46.1866 37.2207 43.7361C33.7725 41.284 31.7593 37.9879 31.7593 34.4533C31.7593 30.9186 33.7725 27.6226 37.2207 25.1705C40.6667 22.72 45.4791 21.1729 50.8411 21.1729C56.2031 21.1729 61.0155 22.72 64.4616 25.1705C67.9098 27.6226 69.9229 30.9186 69.9229 34.4533Z" fill="white" stroke="black" stroke-width="2"/>
<path d="M43.5039 28.7965C43.5039 26.6664 42.0247 26.1339 41.285 26.1339C39.51 26.1339 39.0662 27.909 39.0662 28.7965V38.5595C39.0662 39.447 39.9537 41.2221 41.285 41.2221C42.6164 41.2221 43.5039 39.447 43.5039 38.5595V28.7965Z" fill="black" stroke="black"/>
<path d="M42.6164 29.2403C42.6164 28.1753 41.7288 27.0215 41.285 27.0215C40.3975 27.0215 40.2496 28.3528 39.9537 28.7965C39.6579 29.6841 39.2437 31.1041 39.9537 31.4592C40.5441 31.7543 41.285 31.9029 42.1726 31.4592C42.7436 31.1736 42.6164 30.3054 42.6164 29.2403Z" fill="white"/>
<path d="M61.2547 28.7965C61.2547 26.6664 59.7755 26.1339 59.0359 26.1339C57.2608 26.1339 56.817 27.909 56.817 28.7965V38.5595C56.817 39.447 57.7046 41.2221 59.0359 41.2221C60.3672 41.2221 61.2547 39.447 61.2547 38.5595V28.7965Z" fill="black" stroke="black"/>
<path d="M60.3672 29.2403C60.3672 28.1753 59.4796 27.0215 59.0359 27.0215C58.1483 27.0215 58.0004 28.3528 57.7046 28.7965C57.4087 29.6841 56.9945 31.1041 57.7045 31.4592C58.2949 31.7543 59.0359 31.9029 59.9234 31.4592C60.4945 31.1736 60.3672 30.3054 60.3672 29.2403Z" fill="white"/>
</svg>
