<svg width="100" height="100" viewBox="0 0 100 100" fill="none" xmlns="http://www.w3.org/2000/svg">
<path d="M74.9734 70.3119C69.464 68.4755 64.1077 59.7523 62.1182 55.6203C60.4348 55.3142 58.4453 52.3147 63.9547 42.7652C70.8413 30.8282 76.8098 30.3691 80.0236 30.3691C83.2374 30.3691 86.4512 31.2873 88.7467 36.7967C90.5832 41.2042 89.5119 47.5093 88.7467 50.111C90.5832 55.1612 91.5014 61.5888 89.665 66.639C87.8285 71.6892 81.86 72.6075 74.9734 70.3119Z" fill="#636363"/>
<path d="M74.0551 55.6203H62.1182M62.1182 55.6203C64.1077 59.7523 69.464 68.4755 74.9734 70.3119C81.86 72.6075 87.8285 71.6892 89.665 66.639C91.5014 61.5888 90.5832 55.1612 88.7467 50.111C89.5119 47.5093 90.5832 41.2042 88.7467 36.7967C86.4512 31.2873 83.2374 30.3691 80.0236 30.3691C76.8098 30.3691 70.8413 30.8282 63.9547 42.7651C58.4453 52.3147 60.4348 55.3142 62.1182 55.6203ZM74.0551 47.8154H63.9547" stroke="black" stroke-width="3"/>
<circle cx="78.7033" cy="43.2242" r="2.1729" fill="white" stroke="black" stroke-width="3"/>
<circle cx="78.7033" cy="58.8341" r="2.1729" fill="white" stroke="black" stroke-width="3"/>
<path d="M39.8941 74.972C32.5247 69.4451 19.234 72.0336 15.1019 74.5129C10.5109 77.2676 8.2131 85.6614 15.1019 90.5819C21.5295 95.173 35.3029 92.8774 39.4348 90.5819C43.1078 88.5413 45.4035 79.1041 39.8941 74.972Z" fill="#FFB342" stroke="black" stroke-width="3"/>
<path d="M53.4521 5.11791C48.3101 5.85249 41.2091 15.2184 38.3014 19.8095L50.6975 23.9415C51.1566 21.4929 53.0848 16.1366 57.125 14.3002C61.1652 12.4637 61.5631 9.86207 61.2571 8.79081C60.7979 7.26043 58.5942 4.38333 53.4521 5.11791Z" fill="#6C2E0B" stroke="black" stroke-width="3"/>
<path d="M40.1379 18.8913C36.0977 18.524 33.8633 23.0233 33.2512 25.3189L53.4521 27.6144C54.9213 24.3088 52.84 21.646 51.6157 20.7278C49.4732 20.2686 44.1781 19.2586 40.1379 18.8913Z" fill="#919191" stroke="black" stroke-width="3"/>
<path d="M68.9393 53.3247C68.9393 68.6398 55.7203 81.2079 39.2197 81.2079C22.719 81.2079 9.5 68.6398 9.5 53.3247C9.5 38.0096 22.719 25.4415 39.2197 25.4415C55.7203 25.4415 68.9393 38.0096 68.9393 53.3247Z" fill="#272727" stroke="black" stroke-width="3"/>
<path d="M41.9744 39.5513C37.9342 40.2859 37.5363 46.285 37.8423 49.1927C38.6075 52.5595 39.6788 59.385 44.729 58.375C48.4019 57.6404 48.708 50.7231 48.4019 47.3562C47.9428 44.4485 46.0145 38.8168 41.9744 39.5513Z" fill="white" stroke="black" stroke-width="3"/>
<path d="M25.7182 58.5337C29.8245 58.5118 31.2581 52.673 31.4616 49.7563C31.603 45.7066 31.4212 39.6974 26.274 39.5177C22.1091 39.3722 21.0268 46.3624 20.7436 49.7312C20.6908 52.6744 21.6118 58.5555 25.7182 58.5337Z" fill="white" stroke="black" stroke-width="3"/>
<path d="M64.0117 76.7395C56.6424 71.2126 43.3517 73.801 39.2195 76.2804C34.6285 79.035 32.3307 87.4289 39.2195 92.3493C45.6472 96.9404 59.4206 94.6449 63.5525 92.3493C67.2255 90.3087 69.5211 80.8715 64.0117 76.7395Z" fill="#FFB342" stroke="black" stroke-width="3"/>
</svg>
